# xmcd
#
# Track frame offsets:
#	150
#	29105
#	49000
#	65457
#	82132
#	100810
#	123049
#
# Disc length: 1873 seconds
#
# Revision: 0
# Processed by: cddbd v1.5.1PL2 Copyright (c) Steve Scherf et al.
# Submitted via: EasyCDDAExtractor 9.0.0.1
#
DISCID=5a074f07
DTITLE=Lara Price - Lara and Laura Unplugged
DYEAR=2005
DGENRE=Blues
TTITLE0=Old Love
TTITLE1=Faces Of The Blues
TTITLE2=Cut You Loose
TTITLE3=A Lover Is Forever
TTITLE4=Rock Me Baby
TTITLE5=Loves Tragedy
TTITLE6=I Just Wanna Make Love To You
EXTD=
EXTT0=
EXTT1=
EXTT2=
EXTT3=
EXTT4=
EXTT5=
EXTT6=
PLAYORDER=
